<svg width="215" height="215" viewBox="0 0 215 215" fill="none" xmlns="http://www.w3.org/2000/svg">
<path d="M194.844 181.406C191.872 181.416 188.988 182.41 186.641 184.234C184.295 186.057 182.619 188.607 181.877 191.484H171.328C170.437 191.484 169.583 191.13 168.953 190.5C168.323 189.87 167.969 189.016 167.969 188.125V164.609H175.158C175.975 167.776 177.92 170.536 180.627 172.372C183.334 174.207 186.617 174.992 189.862 174.58C193.106 174.168 196.089 172.587 198.251 170.133C200.413 167.679 201.606 164.521 201.606 161.25C201.606 157.979 200.413 154.821 198.251 152.367C196.089 149.913 193.106 148.332 189.862 147.92C186.617 147.507 183.334 148.293 180.627 150.128C177.92 151.964 175.975 154.724 175.158 157.891H167.969V107.5H178.047C186.066 107.5 193.756 104.315 199.426 98.6445C205.096 92.9745 208.281 85.2843 208.281 77.2656C208.281 69.247 205.096 61.5567 199.426 55.8867C193.756 50.2166 186.066 47.0312 178.047 47.0312H171.127C170.552 41.7871 168.612 36.7854 165.501 32.5255C162.389 28.2655 158.214 24.8964 153.393 22.7544C148.572 20.6125 143.273 19.7727 138.026 20.3189C132.779 20.8651 127.767 22.7782 123.491 25.8672C117.537 18.3244 109.548 12.6437 100.468 9.49654C91.3888 6.34937 81.5981 5.86727 72.2533 8.10719C62.9085 10.3471 54.4002 15.2155 47.7341 22.1368C41.0679 29.0582 36.5226 37.7433 34.6352 47.1656C26.8423 47.7595 19.5827 51.3502 14.3815 57.1837C9.18023 63.0171 6.44204 70.6392 6.74208 78.4489C7.04212 86.2587 10.357 93.6482 15.9905 99.0654C21.624 104.483 29.1376 107.506 36.9531 107.5H47.0313V151.172H39.8422C39.0245 148.005 37.08 145.245 34.3731 143.41C31.6662 141.574 28.3827 140.789 25.1382 141.201C21.8937 141.613 18.9108 143.194 16.7488 145.648C14.5867 148.102 13.3939 151.261 13.3939 154.531C13.3939 157.802 14.5867 160.96 16.7488 163.414C18.9108 165.868 21.8937 167.45 25.1382 167.862C28.3827 168.274 31.6662 167.488 34.3731 165.653C37.08 163.817 39.0245 161.057 39.8422 157.891H47.0313V188.125C47.0313 189.016 46.6773 189.87 46.0473 190.5C45.4173 191.13 44.5628 191.484 43.6719 191.484H33.1234C32.3058 188.318 30.3613 185.558 27.6544 183.722C24.9474 181.887 21.664 181.101 18.4195 181.513C15.1749 181.925 12.1921 183.507 10.03 185.961C7.86796 188.415 6.67514 191.573 6.67514 194.844C6.67514 198.114 7.86796 201.273 10.03 203.727C12.1921 206.181 15.1749 207.762 18.4195 208.174C21.664 208.586 24.9474 207.801 27.6544 205.965C30.3613 204.13 32.3058 201.37 33.1234 198.203H43.6719C46.3423 198.195 48.9011 197.131 50.7894 195.242C52.6777 193.354 53.742 190.795 53.75 188.125V157.891H80.625C83.2954 157.883 85.8542 156.818 87.7425 154.93C89.6308 153.042 90.6952 150.483 90.7031 147.812V107.5H104.141V181.877C100.974 182.694 98.2141 184.639 96.3785 187.346C94.5428 190.053 93.7575 193.336 94.1696 196.581C94.5817 199.825 96.163 202.808 98.617 204.97C101.071 207.132 104.229 208.325 107.5 208.325C110.771 208.325 113.929 207.132 116.383 204.97C118.837 202.808 120.418 199.825 120.83 196.581C121.243 193.336 120.457 190.053 118.622 187.346C116.786 184.639 114.026 182.694 110.859 181.877V107.5H124.297V154.531C124.305 157.202 125.369 159.76 127.258 161.649C129.146 163.537 131.705 164.601 134.375 164.609H161.25V188.125C161.258 190.795 162.322 193.354 164.211 195.242C166.099 197.131 168.658 198.195 171.328 198.203H181.877C182.509 200.631 183.809 202.834 185.63 204.56C187.45 206.286 189.719 207.468 192.177 207.97C194.636 208.472 197.186 208.274 199.537 207.4C201.889 206.525 203.949 205.009 205.482 203.023C207.015 201.037 207.961 198.66 208.212 196.164C208.462 193.667 208.008 191.15 206.9 188.899C205.792 186.648 204.075 184.752 201.944 183.428C199.813 182.103 197.353 181.403 194.844 181.406V181.406ZM188.125 154.531C189.454 154.531 190.753 154.925 191.858 155.664C192.963 156.402 193.824 157.451 194.332 158.679C194.841 159.907 194.974 161.257 194.715 162.561C194.455 163.864 193.816 165.061 192.876 166.001C191.936 166.94 190.739 167.58 189.436 167.84C188.132 168.099 186.782 167.966 185.554 167.457C184.326 166.949 183.277 166.088 182.539 164.983C181.8 163.878 181.406 162.579 181.406 161.25C181.412 159.47 182.121 157.764 183.38 156.505C184.639 155.246 186.345 154.537 188.125 154.531V154.531ZM26.875 161.25C25.5462 161.25 24.2472 160.856 23.1423 160.118C22.0374 159.379 21.1762 158.33 20.6677 157.102C20.1592 155.875 20.0261 154.524 20.2854 153.22C20.5446 151.917 21.1845 150.72 22.1241 149.78C23.0638 148.841 24.2609 148.201 25.5642 147.942C26.8676 147.682 28.2185 147.815 29.4462 148.324C30.6739 148.832 31.7232 149.694 32.4614 150.798C33.1997 151.903 33.5938 153.202 33.5938 154.531C33.5884 156.312 32.8789 158.017 31.62 159.276C30.3611 160.535 28.6553 161.245 26.875 161.25ZM20.1563 201.562C18.8274 201.562 17.5284 201.168 16.4235 200.43C15.3186 199.692 14.4575 198.643 13.9489 197.415C13.4404 196.187 13.3074 194.836 13.5666 193.533C13.8258 192.23 14.4657 191.032 15.4054 190.093C16.345 189.153 17.5422 188.513 18.8455 188.254C20.1488 187.995 21.4997 188.128 22.7274 188.636C23.9551 189.145 25.0044 190.006 25.7427 191.111C26.481 192.216 26.875 193.515 26.875 194.844C26.8697 196.624 26.1601 198.33 24.9013 199.589C23.6424 200.848 21.9365 201.557 20.1563 201.562ZM83.9844 147.812C83.9844 148.703 83.6305 149.558 83.0004 150.188C82.3704 150.818 81.516 151.172 80.625 151.172H53.75V107.5H83.9844V147.812ZM114.219 194.844C114.219 196.173 113.825 197.472 113.086 198.576C112.348 199.681 111.299 200.543 110.071 201.051C108.843 201.56 107.493 201.693 106.189 201.433C104.886 201.174 103.689 200.534 102.749 199.595C101.809 198.655 101.17 197.458 100.91 196.154C100.651 194.851 100.784 193.5 101.293 192.273C101.801 191.045 102.662 189.996 103.767 189.257C104.872 188.519 106.171 188.125 107.5 188.125C109.28 188.13 110.986 188.84 112.245 190.099C113.504 191.358 114.213 193.063 114.219 194.844ZM161.25 157.891H134.375C133.484 157.891 132.63 157.537 132 156.907C131.37 156.277 131.016 155.422 131.016 154.531V107.5H161.25V157.891ZM36.9531 100.781C30.7164 100.781 24.7351 98.3037 20.3251 93.8937C15.915 89.4836 13.4375 83.5023 13.4375 77.2656C13.4375 71.0289 15.915 65.0476 20.3251 60.6376C24.7351 56.2275 30.7164 53.75 36.9531 53.75H37.3563C41.4836 53.8298 45.5177 54.992 49.0549 57.1202C52.5922 59.2485 55.5086 62.2682 57.5125 65.8773L63.425 62.6187C61.1575 58.5715 57.9972 55.0945 54.1845 52.4517C50.3717 49.809 46.0067 48.0701 41.4211 47.3672C43.7535 37.1641 49.6725 28.138 58.1005 21.9323C66.5285 15.7266 76.9049 12.754 87.3404 13.5558C97.7758 14.3576 107.576 18.8804 114.957 26.3008C122.338 33.7212 126.809 43.5456 127.555 53.9851L134.241 53.5148C133.683 45.7043 131.301 38.1334 127.287 31.4101C131.613 28.2786 136.877 26.7131 142.211 26.9713C147.546 27.2295 152.634 29.2959 156.638 32.8306C160.642 36.3652 163.323 41.1575 164.241 46.419C165.158 51.6804 164.258 57.0975 161.687 61.7789L167.532 65.0375C169.462 61.5486 170.684 57.7126 171.127 53.75H178.047C184.284 53.75 190.265 56.2275 194.675 60.6376C199.085 65.0476 201.563 71.0289 201.563 77.2656C201.563 83.5023 199.085 89.4836 194.675 93.8937C190.265 98.3037 184.284 100.781 178.047 100.781H36.9531ZM194.844 201.562C193.515 201.562 192.216 201.168 191.111 200.43C190.006 199.692 189.145 198.643 188.636 197.415C188.128 196.187 187.995 194.836 188.254 193.533C188.513 192.23 189.153 191.032 190.093 190.093C191.033 189.153 192.23 188.513 193.533 188.254C194.836 187.995 196.187 188.128 197.415 188.636C198.643 189.145 199.692 190.006 200.43 191.111C201.168 192.216 201.563 193.515 201.563 194.844C201.557 196.624 200.848 198.33 199.589 199.589C198.33 200.848 196.624 201.557 194.844 201.562V201.562Z" fill="#7C3AED"/>
<path d="M26.875 77.2656C26.875 74.5927 27.9368 72.0293 29.8268 70.1393C31.7168 68.2493 34.2802 67.1875 36.9531 67.1875V60.4688C32.4983 60.4688 28.226 62.2384 25.0759 65.3884C21.9259 68.5385 20.1563 72.8108 20.1562 77.2656C20.1563 81.7204 21.9259 85.9928 25.0759 89.1428C28.226 92.2928 32.4983 94.0625 36.9531 94.0625H57.1094V87.3438H36.9531C34.2802 87.3437 31.7168 86.282 29.8268 84.3919C27.9368 82.5019 26.875 79.9385 26.875 77.2656Z" fill="#7C3AED"/>
<path d="M87.3102 63.4586C87.2274 62.6357 86.8407 61.8733 86.2256 61.3203C85.6106 60.7674 84.8114 60.4638 83.9844 60.4687H70.5469C69.7198 60.4638 68.9207 60.7674 68.3056 61.3203C67.6906 61.8733 67.3039 62.6357 67.2211 63.4586L63.8617 93.693L70.5133 94.432L71.6891 83.9844H82.8422L84.018 94.432L90.6695 93.693L87.3102 63.4586ZM72.4281 77.2656L73.5703 67.1875H80.9609L82.1031 77.2656H72.4281Z" fill="#7C3AED"/>
<path d="M120.938 60.4688H100.781C99.8903 60.4688 99.0358 60.8227 98.4058 61.4527C97.7758 62.0827 97.4219 62.9372 97.4219 63.8281V94.0625H104.141V80.625H120.938C121.828 80.625 122.683 80.2711 123.313 79.6411C123.943 79.0111 124.297 78.1566 124.297 77.2656V63.8281C124.297 62.9372 123.943 62.0827 123.313 61.4527C122.683 60.8227 121.828 60.4688 120.938 60.4688ZM117.578 73.9062H104.141V67.1875H117.578V73.9062Z" fill="#7C3AED"/>
<path d="M144.453 67.1875V87.3438H151.172V94.0625H131.016V87.3438H137.734V67.1875H131.016V60.4688H151.172V67.1875H144.453Z" fill="#7C3AED"/>
</svg>
