<svg width="309" height="309" viewBox="0 0 309 309" fill="none" xmlns="http://www.w3.org/2000/svg">
<path d="M287.875 148.731C289.024 175.294 282.215 201.596 268.32 224.265C254.426 246.934 234.078 264.938 209.886 275.969C185.694 287 158.759 290.555 132.532 286.18C106.306 281.805 81.9841 269.698 62.6828 251.411C43.3814 233.125 29.9802 209.491 24.1966 183.539C18.4131 157.587 20.5106 130.499 30.2204 105.747C39.9302 80.9952 56.81 59.7062 78.6965 44.6088C100.583 29.5114 126.479 21.2933 153.066 21.0077L153.503 61.6561C135.011 61.8547 117.001 67.5704 101.779 78.0707C86.5566 88.5709 74.8167 103.377 68.0635 120.593C61.3104 137.808 59.8515 156.647 63.874 174.697C67.8965 192.746 77.217 209.184 90.6411 221.902C104.065 234.62 120.981 243.041 139.222 246.084C157.462 249.127 176.195 246.654 193.021 238.982C209.847 231.309 223.998 218.788 233.662 203.022C243.326 187.255 248.062 168.962 247.263 150.487L287.875 148.731Z" fill="#7C3AED"/>
<path d="M77.9999 153C77.9999 137.969 82.4573 123.275 90.8082 110.777C99.1592 98.2785 111.029 88.5374 124.916 82.7852C138.803 77.0329 154.084 75.5279 168.827 78.4603C183.569 81.3928 197.111 88.6311 207.74 99.2599C218.369 109.889 225.607 123.431 228.54 138.173C231.472 152.916 229.967 168.197 224.215 182.084C218.463 195.971 208.721 207.841 196.223 216.192C183.725 224.543 169.031 229 154 229L154 182.66C159.866 182.66 165.6 180.92 170.478 177.661C175.355 174.402 179.157 169.77 181.402 164.35C183.647 158.931 184.234 152.967 183.09 147.214C181.945 141.46 179.12 136.175 174.972 132.027C170.824 127.88 165.54 125.055 159.786 123.91C154.033 122.766 148.069 123.353 142.65 125.598C137.23 127.843 132.598 131.645 129.339 136.522C126.08 141.4 124.34 147.134 124.34 153L77.9999 153Z" fill="#7C3AED"/>
<circle cx="154.5" cy="153.5" r="11.5" fill="#7C3AED"/>
<path d="M139.908 166.636L126.825 215.461L91.0827 179.719L139.908 166.636Z" fill="#7C3AED"/>
</svg>
