<svg width="32" height="32" viewBox="0 0 32 32" fill="none" xmlns="http://www.w3.org/2000/svg">
<path d="M29.3327 15.3354C29.4483 18.0076 28.7633 20.6534 27.3656 22.9337C25.9678 25.2141 23.921 27.0252 21.4874 28.1348C19.0538 29.2445 16.3443 29.6022 13.7061 29.1621C11.0679 28.7219 8.62119 27.5041 6.67959 25.6645C4.73798 23.825 3.38989 21.4476 2.8081 18.8369C2.2263 16.2263 2.4373 13.5015 3.41406 11.0115C4.39081 8.5216 6.08882 6.38006 8.29048 4.86134C10.4921 3.34263 13.0971 2.51593 15.7716 2.4872L15.8156 6.5762C13.9554 6.59618 12.1437 7.17115 10.6124 8.22741C9.08116 9.28368 7.90019 10.7731 7.22086 12.5049C6.54153 14.2366 6.39478 16.1318 6.79942 17.9474C7.20405 19.7631 8.14165 21.4166 9.49204 22.696C10.8424 23.9754 12.5441 24.8225 14.379 25.1286C16.2138 25.4347 18.0983 25.1859 19.7909 24.4141C21.4835 23.6424 22.907 22.3828 23.8791 20.7968C24.8513 19.2108 25.3277 17.3706 25.2473 15.5121L29.3327 15.3354Z" fill="#7C3AED"/>
<path d="M8.22163 15.7646C8.22163 14.2525 8.67001 12.7744 9.51007 11.5172C10.3501 10.2599 11.5441 9.28002 12.9411 8.70138C14.3381 8.12273 15.8753 7.97133 17.3583 8.26632C18.8413 8.56131 20.2035 9.28945 21.2727 10.3586C22.3419 11.4278 23.0701 12.7901 23.3651 14.2731C23.6601 15.7561 23.5087 17.2933 22.93 18.6903C22.3514 20.0872 21.3715 21.2813 20.1142 22.1213C18.857 22.9614 17.3789 23.4098 15.8668 23.4098L15.8668 18.7482C16.4569 18.7482 17.0337 18.5732 17.5244 18.2454C18.015 17.9175 18.3974 17.4515 18.6233 16.9064C18.8491 16.3612 18.9082 15.7613 18.7931 15.1825C18.6779 14.6038 18.3938 14.0721 17.9765 13.6549C17.5592 13.2376 17.0276 12.9535 16.4489 12.8383C15.8701 12.7232 15.2702 12.7823 14.725 13.0081C14.1798 13.2339 13.7139 13.6164 13.386 14.107C13.0582 14.5976 12.8832 15.1745 12.8832 15.7646L8.22163 15.7646Z" fill="#7C3AED"/>
<circle cx="15.917" cy="15.815" r="1.15683" fill="#7C3AED"/>
<path d="M14.4482 17.1368L13.1321 22.0483L9.53663 18.4528L14.4482 17.1368Z" fill="#7C3AED"/>
</svg>
