<svg width="461" height="437" viewBox="0 0 461 437" fill="none" xmlns="http://www.w3.org/2000/svg">
<path d="M460.411 218.5C460.411 186 422.216 155.2 363.656 136.1C377.17 72.5 371.163 21.9 344.699 5.7C338.599 1.9 331.466 0.0999985 323.677 0.0999985V22.4C327.994 22.4 331.466 23.3 334.375 25C347.139 32.8 352.676 62.5 348.359 100.7C347.326 110.1 345.637 120 343.572 130.1C325.178 125.3 305.095 121.6 283.98 119.2C271.311 100.7 258.172 83.9 244.94 69.2C275.534 38.9 304.251 22.3 323.771 22.3V0C297.963 0 264.178 19.6 230.018 53.6C195.858 19.8 162.073 0.400002 136.265 0.400002V22.7C155.692 22.7 184.502 39.2 215.096 69.3C201.958 84 188.819 100.7 176.338 119.2C155.128 121.6 135.045 125.3 116.651 130.2C114.493 120.2 112.897 110.5 111.771 101.2C107.361 63 112.804 33.3 125.473 25.4C128.288 23.6 131.948 22.8 136.265 22.8V0.5C128.382 0.5 121.25 2.3 115.056 6.1C88.685 22.3 82.7727 72.8 96.3805 136.2C38.0079 155.4 0 186.1 0 218.5C0 251 38.1956 281.8 96.7558 300.9C83.2419 364.5 89.2481 415.1 115.713 431.3C121.813 435.1 128.945 436.9 136.828 436.9C162.636 436.9 196.421 417.3 230.581 383.3C264.741 417.1 298.526 436.5 324.334 436.5C332.217 436.5 339.349 434.7 345.543 430.9C371.914 414.7 377.826 364.2 364.219 300.8C422.404 281.7 460.411 250.9 460.411 218.5ZM338.223 151.8C334.751 164.7 330.434 178 325.554 191.3C321.706 183.3 317.671 175.3 313.26 167.3C308.943 159.3 304.345 151.5 299.746 143.9C313.072 146 325.929 148.6 338.223 151.8ZM295.241 258.3C287.921 271.8 280.414 284.6 272.624 296.5C258.641 297.8 244.47 298.5 230.206 298.5C216.035 298.5 201.864 297.8 187.975 296.6C180.185 284.7 172.584 272 165.264 258.6C158.132 245.5 151.656 232.2 145.744 218.8C151.562 205.4 158.132 192 165.17 178.9C172.49 165.4 179.998 152.6 187.787 140.7C201.77 139.4 215.941 138.7 230.206 138.7C244.377 138.7 258.547 139.4 272.437 140.6C280.226 152.5 287.828 165.2 295.148 178.6C302.28 191.7 308.755 205 314.668 218.4C308.755 231.8 302.28 245.2 295.241 258.3ZM325.554 245.3C330.622 258.7 334.939 272.1 338.505 285.1C326.211 288.3 313.26 291 299.84 293.1C304.438 285.4 309.037 277.5 313.354 269.4C317.671 261.4 321.706 253.3 325.554 245.3ZM230.393 352C221.666 342.4 212.938 331.7 204.304 320C212.75 320.4 221.384 320.7 230.112 320.7C238.933 320.7 247.661 320.5 256.201 320C247.755 331.7 239.027 342.4 230.393 352ZM160.572 293.1C147.245 291 134.388 288.4 122.094 285.2C125.567 272.3 129.884 259 134.764 245.7C138.611 253.7 142.647 261.7 147.058 269.7C151.468 277.7 155.973 285.5 160.572 293.1ZM229.924 85C238.652 94.6 247.38 105.3 256.014 117C247.567 116.6 238.933 116.3 230.206 116.3C221.384 116.3 212.656 116.5 204.116 117C212.563 105.3 221.29 94.6 229.924 85ZM160.478 143.9C155.879 151.6 151.281 159.5 146.964 167.6C142.647 175.6 138.611 183.6 134.764 191.6C129.696 178.2 125.379 164.8 121.813 151.8C134.107 148.7 147.058 146 160.478 143.9ZM75.5465 269.1C42.3248 254 20.8339 234.2 20.8339 218.5C20.8339 202.8 42.3248 182.9 75.5465 167.9C83.6173 164.2 92.4389 160.9 101.542 157.8C106.891 177.4 113.93 197.8 122.658 218.7C114.024 239.5 107.079 259.8 101.824 279.3C92.5328 276.2 83.7112 272.8 75.5465 269.1ZM126.036 412C113.273 404.2 107.736 374.5 112.053 336.3C113.085 326.9 114.774 317 116.839 306.9C135.233 311.7 155.316 315.4 176.432 317.8C189.101 336.3 202.239 353.1 215.472 367.8C184.878 398.1 156.161 414.7 136.641 414.7C132.418 414.6 128.851 413.7 126.036 412ZM348.64 335.8C353.051 374 347.608 403.7 334.939 411.6C332.123 413.4 328.463 414.2 324.146 414.2C304.72 414.2 275.909 397.7 245.315 367.6C258.454 352.9 271.592 336.2 284.074 317.7C305.283 315.3 325.366 311.6 343.76 306.7C345.919 316.8 347.608 326.5 348.64 335.8ZM384.771 269.1C376.7 272.8 367.879 276.1 358.776 279.2C353.426 259.6 346.388 239.2 337.66 218.3C346.294 197.5 353.239 177.2 358.494 157.7C367.785 160.8 376.606 164.2 384.865 167.9C418.087 183 439.578 202.8 439.578 218.5C439.484 234.2 417.993 254.1 384.771 269.1Z" fill="#7C3AED"/>
<path d="M230 264.2C253.687 264.2 272.888 243.739 272.888 218.5C272.888 193.261 253.687 172.8 230 172.8C206.314 172.8 187.113 193.261 187.113 218.5C187.113 243.739 206.314 264.2 230 264.2Z" fill="#7C3AED"/>
</svg>
