<svg width="472" height="311" viewBox="0 0 472 311" fill="none" xmlns="http://www.w3.org/2000/svg">
<path d="M471.934 287.495C471.898 286.47 471.862 285.439 471.826 284.404C471.789 283.37 471.75 282.332 471.712 281.29L471.682 280.51L471.668 280.119L471.664 280.021L471.654 279.147L471.651 279.106L471.638 278.944L471.538 277.649C471.404 275.92 471.269 274.184 471.134 272.448L471.032 271.134L470.877 269.43C470.769 268.297 470.662 267.164 470.556 266.034C470.445 264.905 470.334 263.778 470.223 262.656C470.166 262.095 470.109 261.535 470.053 260.976C469.984 260.458 469.916 259.942 469.847 259.426C469.281 255.331 468.776 251.307 468.054 247.438C467.714 245.502 467.399 243.599 467.045 241.743C466.659 239.893 466.282 238.083 465.914 236.321C465.218 232.794 464.343 229.501 463.605 226.456C463.417 225.696 463.232 224.951 463.051 224.224C462.851 223.5 462.654 222.795 462.463 222.106C462.074 220.732 461.706 219.427 461.359 218.203C461.006 216.98 460.695 215.833 460.37 214.78C460.035 213.732 459.728 212.768 459.451 211.897C459.039 210.618 458.692 209.541 458.418 208.69C458.013 207.434 456.685 206.727 455.415 207.089L375.616 229.83C374.4 230.176 373.647 231.387 373.878 232.63C373.965 233.094 374.064 233.626 374.174 234.221C374.288 234.819 374.414 235.483 374.551 236.205C374.681 236.929 374.783 237.722 374.913 238.56C375.041 239.399 375.178 240.293 375.321 241.235C375.391 241.705 375.474 242.185 375.539 242.68C375.596 243.177 375.653 243.687 375.713 244.206C375.935 246.285 376.267 248.513 376.415 250.903C376.513 252.092 376.614 253.314 376.718 254.56C376.795 255.812 376.834 257.093 376.901 258.391C377.073 260.981 377.041 263.678 377.09 266.397L377.102 267.41L377.066 268.307C377.046 268.905 377.025 269.503 377.004 270.104C376.989 270.702 376.972 271.302 376.956 271.902L376.937 272.8L376.882 274.093C376.809 275.833 376.734 277.572 376.66 279.305L376.604 280.603L376.597 280.765L376.596 280.805C376.597 281 376.581 279.259 376.586 280.011L376.579 280.075L376.555 280.331L376.508 280.843C376.446 281.526 376.385 282.204 376.324 282.881C376.265 283.557 376.205 284.23 376.147 284.9C376.068 285.566 375.989 286.23 375.909 286.889C375.74 288.206 375.636 289.51 375.426 290.78C375.242 292.052 375.061 293.3 374.884 294.524C374.673 295.739 374.466 296.928 374.265 298.084C374.083 299.242 373.84 300.357 373.623 301.436C373.397 302.513 373.216 303.559 372.981 304.552C372.752 305.544 372.533 306.494 372.324 307.399C372.22 307.845 372.12 308.279 372.023 308.703C371.922 309.065 371.825 309.417 371.73 309.759C371.675 309.967 371.622 310.163 371.568 310.365H469.167C470.475 310.365 471.565 309.339 471.614 308.032C471.615 308.024 471.615 308.016 471.615 308.008C471.696 306.191 471.78 304.325 471.865 302.417C471.902 300.511 471.938 298.563 471.977 296.583C472.032 294.604 471.972 292.594 471.967 290.561C471.955 289.545 471.945 288.523 471.934 287.495Z" fill="#7C3AED"/>
<path d="M446.556 185.057C447.865 184.53 448.463 183.014 447.859 181.739C447.591 181.172 447.277 180.509 446.922 179.759C446.587 179.055 446.216 178.275 445.814 177.425C445.292 176.364 444.729 175.216 444.126 173.989C443.519 172.768 442.874 171.467 442.192 170.097C441.847 169.385 441.507 168.797 441.152 168.128C440.798 167.474 440.436 166.805 440.066 166.122C439.322 164.759 438.562 163.334 437.745 161.874C436.902 160.43 436.031 158.937 435.135 157.401C434.686 156.636 434.23 155.859 433.769 155.074C433.287 154.301 432.798 153.518 432.305 152.727C431.313 151.152 430.299 149.542 429.268 147.905C427.094 144.701 424.929 141.349 422.513 138.087C421.919 137.266 421.323 136.442 420.725 135.615L419.826 134.376L418.89 133.157C417.638 131.536 416.381 129.909 415.124 128.282C413.844 126.674 412.521 125.099 411.223 123.519C410.568 122.734 409.932 121.937 409.263 121.17C408.592 120.405 407.923 119.643 407.256 118.883C406.588 118.126 405.924 117.371 405.263 116.621C404.606 115.867 403.943 115.126 403.259 114.41C401.906 112.968 400.569 111.545 399.255 110.144C397.938 108.748 396.575 107.436 395.277 106.124C393.971 104.82 392.701 103.538 391.404 102.348C390.122 101.148 388.874 99.9803 387.667 98.8505C386.466 97.7182 385.239 96.6898 384.096 95.6712C382.944 94.6636 381.84 93.6983 380.789 92.7801C379.712 91.8923 378.69 91.0506 377.73 90.2596C376.769 89.4717 375.871 88.7343 375.04 88.0527C374.207 87.3735 373.41 86.7847 372.708 86.2357C371.686 85.4512 370.822 84.7884 370.136 84.2618C369.09 83.4589 367.599 83.6303 366.759 84.6473L323.929 136.491C323.122 137.468 323.191 138.897 324.091 139.79C324.45 140.143 324.863 140.553 325.328 141.013C325.774 141.461 326.284 141.935 326.808 142.489C327.332 143.042 327.897 143.64 328.502 144.279C329.108 144.915 329.751 145.592 330.43 146.305C331.084 147.042 331.772 147.817 332.49 148.626C333.199 149.441 333.974 150.251 334.711 151.154C335.455 152.049 336.224 152.973 337.015 153.923C337.82 154.856 338.589 155.869 339.385 156.893C340.172 157.923 341.014 158.939 341.805 160.029C342.596 161.115 343.401 162.219 344.215 163.337C344.63 163.887 345.024 164.461 345.412 165.043C345.805 165.622 346.199 166.202 346.595 166.785C346.992 167.365 347.391 167.949 347.79 168.534C348.188 169.119 348.553 169.731 348.938 170.33C349.695 171.538 350.479 172.729 351.222 173.946C351.946 175.174 352.671 176.403 353.393 177.627L353.934 178.54L354.441 179.473C354.78 180.092 355.118 180.71 355.454 181.325C356.843 183.754 358.015 186.258 359.241 188.611C359.803 189.818 360.355 191.003 360.895 192.165C361.166 192.743 361.433 193.315 361.697 193.88C361.942 194.456 362.184 195.024 362.422 195.585C362.902 196.7 363.368 197.788 363.819 198.837C364.236 199.902 364.639 200.931 365.025 201.917C365.219 202.41 365.408 202.893 365.593 203.364C365.767 203.824 365.984 204.322 366.1 204.705C366.376 205.509 366.637 206.273 366.882 206.99C367.133 207.703 367.368 208.369 367.584 208.986C367.869 209.836 368.13 210.615 368.366 211.319C368.629 212.106 368.861 212.802 369.06 213.398C369.506 214.736 370.987 215.418 372.296 214.893L446.556 185.057Z" fill="#7C3AED"/>
<path d="M228.451 92.4556C229.1 92.5441 229.818 92.642 230.6 92.7488C231.377 92.8839 232.218 93.0305 233.115 93.187C234.012 93.341 234.966 93.5045 235.971 93.6774C236.844 93.8225 237.749 94.0331 238.689 94.2299L265.719 38.9404C264.379 38.7312 263.05 38.5236 261.748 38.3204C260.856 38.1877 259.977 38.0352 259.103 37.9259C258.228 37.82 257.363 37.7152 256.51 37.6119C254.806 37.4096 253.149 37.2124 251.547 37.0221C249.94 36.8845 248.388 36.7513 246.898 36.6236C245.407 36.5094 243.986 36.3588 242.625 36.2942C241.266 36.2277 239.978 36.1641 238.767 36.1044C237.557 36.0473 236.425 35.9941 235.379 35.9445C234.333 35.9276 233.371 35.9122 232.502 35.8983C231.279 35.8833 230.242 35.8709 229.41 35.861C228.091 35.8451 227 36.876 226.937 38.1937L224.472 89.655C224.411 90.9229 225.326 92.0269 226.583 92.1993C227.119 92.2728 227.743 92.3588 228.451 92.4556Z" fill="#7C3AED"/>
<path d="M301.099 120.792C301.825 121.32 302.514 121.821 303.161 122.292C303.809 122.756 304.416 123.191 304.976 123.593C305.219 123.76 305.62 124.064 305.948 124.307C306.285 124.559 306.607 124.799 306.911 125.027C307.576 125.523 308.164 125.961 308.666 126.336C309.797 127.18 311.402 126.895 312.177 125.715L347.467 71.959C348.242 70.7795 347.866 69.1931 346.642 68.491C346.097 68.179 345.462 67.8143 344.743 67.4015C344.412 67.2117 344.064 67.0124 343.699 66.8028C343.301 66.5777 342.885 66.3422 342.451 66.0968C341.447 65.5433 340.361 64.9456 339.201 64.3061C338.04 63.6737 336.805 63.0009 335.503 62.291C334.262 61.6694 332.959 61.0161 331.598 60.3339C330.231 59.6671 328.837 58.9254 327.342 58.2521C325.854 57.5705 324.316 56.8655 322.735 56.1406C321.164 55.3993 319.507 54.7261 317.825 54.0195C316.135 53.3279 314.436 52.5718 312.661 51.9045C312.211 51.7341 311.754 51.5617 311.301 51.3898L296.077 117.469C296.919 117.997 297.712 118.558 298.493 119.063C299.402 119.666 300.271 120.243 301.099 120.792Z" fill="#7C3AED"/>
<path d="M181.066 92.1864C181.747 92.0964 182.417 91.9851 183.085 91.9146C183.753 91.847 184.414 91.78 185.064 91.7134C186.364 91.5787 187.627 91.4476 188.85 91.3204C190.076 91.2384 191.261 91.1589 192.398 91.0824C192.966 91.0436 193.521 91.0059 194.064 90.9686C194.606 90.9323 195.148 90.8861 195.613 90.8856C196.572 90.8603 197.481 90.837 198.335 90.8146C199.187 90.7878 199.983 90.7624 200.72 90.7391C201.629 90.7331 202.464 90.7276 203.217 90.7227C204.047 90.7182 204.78 90.7142 205.407 90.7107C206.818 90.7033 207.927 89.5084 207.835 88.1003L204.658 39.6236C204.565 38.2155 203.31 37.1756 201.91 37.3525C201.288 37.431 200.561 37.5229 199.738 37.6268C198.974 37.7236 198.129 37.8315 197.209 37.9487C196.122 38.1102 194.947 38.2841 193.69 38.4704C192.437 38.6612 191.104 38.8644 189.698 39.0785C188.979 39.1799 188.317 39.3145 187.622 39.4457C186.929 39.5779 186.22 39.7135 185.496 39.8516C184.05 40.1308 182.545 40.422 180.986 40.7231C179.44 41.0753 177.84 41.44 176.196 41.8141C175.375 42.0024 174.544 42.1937 173.702 42.3875C172.861 42.5842 172.018 42.8247 171.163 43.0458C169.457 43.5004 167.714 43.965 165.941 44.437C164.187 44.9661 162.402 45.5037 160.597 46.0482C159.697 46.3269 158.787 46.5898 157.883 46.8874C156.982 47.1949 156.076 47.5035 155.166 47.814C154.259 48.125 153.348 48.437 152.434 48.7505C151.52 49.0616 150.604 49.3741 149.701 49.7303C147.89 50.4214 146.072 51.1155 144.254 51.8096C142.444 52.5181 140.664 53.3031 138.88 54.0459C137.99 54.425 137.098 54.7906 136.219 55.1797C135.346 55.5826 134.477 55.984 133.61 56.3845C132.745 56.785 131.883 57.1844 131.025 57.5814C130.168 57.9779 129.315 58.3684 128.485 58.7991C126.82 59.6398 125.175 60.4705 123.557 61.2873C121.939 62.0987 120.397 62.994 118.865 63.8182C117.34 64.6579 115.841 65.4588 114.426 66.3218C113.004 67.1655 111.62 67.9867 110.281 68.7807C108.939 69.5637 107.694 70.4093 106.474 71.1735C105.262 71.95 104.101 72.6948 102.996 73.4028C101.916 74.1446 100.89 74.8481 99.9267 75.5094C98.9658 76.1712 98.0665 76.7903 97.2348 77.3631C96.4041 77.936 95.6693 78.5039 94.9921 78.9947C94.0744 79.6724 93.2909 80.2508 92.6569 80.7188C91.5981 81.5003 91.3497 82.9764 92.09 84.065L112.22 113.66C112.936 114.713 114.337 115.044 115.446 114.417C115.957 114.129 116.561 113.788 117.251 113.399C117.851 113.067 118.501 112.674 119.235 112.292C119.968 111.909 120.761 111.497 121.608 111.056C122.453 110.614 123.352 110.144 124.3 109.649C125.264 109.187 126.277 108.701 127.334 108.194C128.396 107.699 129.474 107.132 130.636 106.638C131.789 106.132 132.982 105.609 134.208 105.07C135.422 104.512 136.707 104.023 138.008 103.501C139.316 102.995 140.625 102.421 141.997 101.937C143.363 101.444 144.752 100.944 146.158 100.437C146.855 100.173 147.572 99.9485 148.291 99.719C149.009 99.4879 149.73 99.2559 150.454 99.0229C151.176 98.7894 151.902 98.5549 152.629 98.3194C153.36 98.0973 154.102 97.8985 154.839 97.6859C156.319 97.2765 157.789 96.8224 159.28 96.4418C160.771 96.0727 162.263 95.7035 163.748 95.3363C164.486 95.1401 165.234 94.9866 165.979 94.833C166.722 94.6765 167.463 94.5205 168.202 94.365C168.938 94.2085 169.672 94.053 170.403 93.898C171.134 93.7519 171.87 93.6391 172.596 93.5085C174.048 93.2566 175.482 93.0071 176.893 92.7627C178.309 92.5674 179.701 92.3747 181.066 92.1864Z" fill="#7C3AED"/>
<path d="M43.8089 130.45C43.2813 131.196 42.7517 131.946 42.2195 132.699C41.6889 133.451 41.1563 134.206 40.6217 134.964C40.0896 135.723 39.5918 136.51 39.074 137.284C38.0535 138.842 37.0092 140.389 36.0095 141.965C35.0332 143.554 34.0569 145.144 33.0846 146.727L32.3592 147.913L31.6706 149.117C31.213 149.918 30.7569 150.718 30.3023 151.513C28.4441 154.67 26.8299 157.896 25.1893 160.961C24.4257 162.523 23.6745 164.06 22.9391 165.564C22.5744 166.316 22.2132 167.06 21.857 167.794C21.5216 168.538 21.1907 169.274 20.8638 170.001C20.213 171.45 19.58 172.861 18.9674 174.226C18.396 175.607 17.8435 176.942 17.3134 178.223C16.7937 179.508 16.2685 180.723 15.8209 181.903C15.3792 183.084 14.9599 184.205 14.5654 185.258C14.1729 186.31 13.8057 187.294 13.4664 188.204C13.1529 189.124 12.8652 189.968 12.6048 190.73C12.267 191.733 11.9768 192.594 11.7398 193.298C11.32 194.543 11.9584 195.894 13.1856 196.365L31.9215 203.547C33.1139 204.004 34.4569 203.471 35.0079 202.319C35.2812 201.748 35.6076 201.065 35.9827 200.281C36.2937 199.634 36.6375 198.918 37.0127 198.139C37.4111 197.37 37.8419 196.54 38.3025 195.653C38.7615 194.768 39.2494 193.824 39.7642 192.83C40.2829 191.84 40.8801 190.824 41.4728 189.751C42.073 188.683 42.6985 187.571 43.3459 186.419C44.028 185.29 44.7331 184.121 45.4585 182.92C45.8197 182.32 46.1858 181.713 46.5565 181.098C46.9465 180.494 47.3415 179.884 47.7404 179.265C48.5384 178.033 49.3537 176.775 50.1829 175.494C51.9447 173 53.6678 170.373 55.6149 167.84C56.0904 167.199 56.5678 166.557 57.0468 165.913L57.7647 164.945L58.5169 163.999C59.5186 162.738 60.5242 161.472 61.5298 160.207C62.5538 158.957 63.6165 157.739 64.6494 156.511C65.1731 155.901 65.6759 155.279 66.212 154.687C66.7486 154.095 67.2832 153.505 67.8158 152.917C68.3474 152.329 68.8766 151.745 69.4032 151.162C69.9249 150.577 70.4515 150.002 70.9986 149.451C72.0747 148.337 73.138 147.236 74.1838 146.152C75.2277 145.071 76.3173 144.067 77.3457 143.052C78.3821 142.045 79.3847 141.052 80.4172 140.141C81.4327 139.217 82.4205 138.318 83.3764 137.448C84.3243 136.573 85.3011 135.792 86.2034 135.008C87.1116 134.235 87.9821 133.493 88.8098 132.788C89.6227 132.145 90.3938 131.535 91.1182 130.96C91.8386 130.387 92.5128 129.85 93.1363 129.353C93.4225 129.117 93.81 128.833 94.1375 128.584C94.4733 128.331 94.7938 128.089 95.0978 127.86C95.7601 127.36 96.3449 126.919 96.8457 126.541C97.9721 125.691 98.1465 124.07 97.2303 122.997L75.8984 98.0064C74.9822 96.9332 73.3541 96.8512 72.3381 97.83C71.8864 98.2652 71.3583 98.7735 70.7611 99.3493C70.4868 99.6131 70.1977 99.8919 69.8946 100.184C69.586 100.483 69.2924 100.756 68.9099 101.147C68.1785 101.885 67.388 102.683 66.5429 103.536C65.7022 104.389 64.8074 105.297 63.8639 106.253C62.987 107.203 62.0649 108.202 61.103 109.244C60.153 110.294 59.1285 111.352 58.1373 112.511C57.1422 113.665 56.1137 114.858 55.0559 116.083C53.9852 117.295 52.9493 118.596 51.8836 119.916C50.8258 121.243 49.7109 122.567 48.6472 123.97C47.5864 125.373 46.5083 126.8 45.4172 128.245C44.8627 128.961 44.3326 129.7 43.8089 130.45Z" fill="#7C3AED"/>
<path d="M5.04542 218.069C4.92071 218.683 4.77464 219.403 4.60919 220.215C4.45766 220.962 4.28973 221.788 4.10689 222.688C3.92753 223.608 3.75214 224.695 3.55639 225.804C3.36361 226.924 3.15892 228.115 2.94329 229.371C2.83895 229.997 2.71971 230.644 2.62084 231.296C2.5329 231.945 2.44346 232.608 2.35155 233.284C2.00177 235.993 1.5412 238.908 1.27589 242.022C1.12187 243.574 0.963872 245.167 0.802398 246.796C0.669245 248.427 0.58031 250.098 0.46554 251.791C0.197246 255.175 0.148059 258.685 0.0362694 262.235L0 263.57L0.00645893 264.91C0.0114273 265.805 0.0163958 266.701 0.0213642 267.6C0.0268294 268.497 0.0322947 269.397 0.0372631 270.296L0.0457094 271.646L0.0973808 272.997C0.170416 274.794 0.243452 276.592 0.316488 278.383L0.371637 279.722L0.38853 280.156L0.412378 280.479L0.460075 281.124C0.52367 281.985 0.586769 282.843 0.649868 283.698C0.712967 284.553 0.776066 285.404 0.838171 286.251C0.924124 287.134 1.00908 288.014 1.09454 288.889C1.18049 289.762 1.26595 290.63 1.35091 291.492C1.39364 291.922 1.43637 292.351 1.4791 292.778C1.53226 293.198 1.58542 293.617 1.63808 294.035C1.84974 295.699 2.05792 297.336 2.26162 298.939C2.50756 300.534 2.74803 302.096 2.98154 303.615C3.20015 305.134 3.48186 306.603 3.74072 308.024C3.76208 308.137 3.78344 308.25 3.80431 308.362C4.02044 309.524 5.03101 310.365 6.212 310.365H12.8155C14.2256 310.365 15.3444 309.178 15.2615 307.771C15.2391 307.396 15.2163 307.016 15.1909 306.633C15.1084 305.264 15.0091 303.852 14.9773 302.394C14.9296 300.94 14.8809 299.445 14.8307 297.918C14.8213 296.392 14.8118 294.832 14.8024 293.246C14.7999 292.85 14.7974 292.452 14.7949 292.053C14.8034 291.66 14.8123 291.265 14.8213 290.868C14.8387 290.077 14.856 289.28 14.8739 288.477C14.8913 287.677 14.9092 286.871 14.9271 286.06C14.9668 285.212 15.0061 284.359 15.0463 283.503C15.0861 282.647 15.1263 281.788 15.1661 280.926L15.1964 280.278L15.2113 279.955L15.2133 279.914C15.2133 279.811 15.2153 280.009 15.2163 279.975L15.2222 279.896L15.2346 279.74L15.335 278.487C15.4682 276.815 15.6018 275.138 15.7359 273.46L15.8383 272.205L15.9829 270.952C16.0793 270.119 16.1752 269.286 16.271 268.455C16.3664 267.624 16.4618 266.795 16.5567 265.969L16.6983 264.733L16.8817 263.506C17.3845 260.241 17.8118 257.03 18.4378 253.956C18.7314 252.416 18.9942 250.9 19.2958 249.425C19.6242 247.956 19.9452 246.519 20.2577 245.12C20.836 242.317 21.5858 239.711 22.1959 237.296C22.3524 236.694 22.5054 236.103 22.655 235.526C22.813 234.959 22.9834 234.421 23.1404 233.888C23.4569 232.829 23.7574 231.824 24.0397 230.878C24.3283 229.925 24.5653 229.073 24.8416 228.218C25.1312 227.346 25.3965 226.546 25.637 225.823C25.8983 225.035 26.1294 224.34 26.3271 223.743C26.7718 222.405 25.9952 220.971 24.6319 220.608L8.07764 216.193C6.71381 215.829 5.32663 216.686 5.04542 218.069Z" fill="#7C3AED"/>
<path d="M192.435 303.872C197.821 306.505 203.526 307.753 209.143 307.753C223.242 307.753 236.792 299.898 243.401 286.378C244.674 283.775 245.66 280.902 246.3 278.196L284.844 110.901L299.523 47.19L308.616 7.7224C309.675 3.1291 306.021 0 302.355 0C300.209 0 298.059 1.07269 296.847 3.55143L278.342 41.4023L251.043 97.2402L174.94 252.906C165.697 271.811 173.53 294.63 192.435 303.872ZM210.556 249.998C220.87 249.998 229.231 258.359 229.231 268.673C229.231 278.987 220.87 287.349 210.556 287.349C200.242 287.349 191.88 278.987 191.88 268.673C191.88 258.358 200.242 249.998 210.556 249.998Z" fill="#7C3AED"/>
</svg>
