<svg width="154" height="154" viewBox="0 0 154 154" fill="none" xmlns="http://www.w3.org/2000/svg">
<path d="M81.8324 154H72.1673C64.3503 154 57.9903 147.64 57.9903 139.823V136.553C54.667 135.492 51.4381 134.151 48.3361 132.546L46.0189 134.863C40.4067 140.483 31.4166 140.318 25.9673 134.861L19.1363 128.031C13.6774 122.578 13.5204 113.591 19.1381 107.979L21.4535 105.664C19.8483 102.562 18.5083 99.3333 17.4462 96.0094H14.1767C6.36002 96.0094 0 89.6497 0 81.8326V72.1673C0 64.3503 6.36002 57.9906 14.177 57.9906H17.4465C18.5086 54.667 19.8486 51.4384 21.4538 48.3365L19.1366 46.0195C13.5222 40.4112 13.6771 31.4232 19.1384 25.9679L25.9701 19.1366C31.4319 13.6672 40.4199 13.5306 46.0213 19.1384L48.3365 21.4535C51.4384 19.8486 54.6673 18.5083 57.9906 17.4462V14.1767C57.9906 6.35972 64.3503 0 72.1677 0H81.8326C89.6497 0 96.0094 6.35972 96.0094 14.1767V17.4465C99.3327 18.5083 102.562 19.8486 105.664 21.4538L107.981 19.1366C113.593 13.5174 122.583 13.6822 128.032 19.1387L134.863 25.9695C140.322 31.4223 140.479 40.4094 134.862 46.021L132.546 48.3365C134.151 51.4384 135.491 54.6667 136.553 57.9906H139.823C147.64 57.9906 154 64.3503 154 72.1673V81.8326C154 89.6497 147.64 96.0094 139.823 96.0094H136.553C135.491 99.333 134.151 102.562 132.546 105.664L134.863 107.981C140.478 113.589 140.323 122.577 134.862 128.032L128.03 134.864C122.568 140.333 113.58 140.47 107.979 134.862L105.664 132.547C102.562 134.152 99.3327 135.492 96.0094 136.554V139.824C96.0094 147.64 89.6497 154 81.8324 154V154ZM49.8446 123.071C54.1539 125.619 58.7919 127.544 63.6297 128.793C65.622 129.307 67.0141 131.104 67.0141 133.162V139.823C67.0141 142.665 69.3262 144.977 72.1677 144.977H81.8326C84.6741 144.977 86.9862 142.665 86.9862 139.823V133.162C86.9862 131.104 88.3783 129.307 90.3706 128.793C95.2084 127.544 99.8464 125.619 104.156 123.071C105.929 122.022 108.186 122.307 109.643 123.764L114.362 128.483C116.396 130.52 119.663 130.473 121.648 128.485L128.484 121.649C130.463 119.672 130.529 116.404 128.485 114.363L123.765 109.642C122.308 108.186 122.023 105.928 123.071 104.155C125.62 99.8464 127.545 95.2084 128.793 90.3703C129.308 88.378 131.105 86.9862 133.162 86.9862H139.823C142.665 86.9862 144.977 84.6744 144.977 81.833V72.1677C144.977 69.3262 142.665 67.0144 139.823 67.0144H133.162C131.104 67.0144 129.308 65.6223 128.793 63.6303C127.545 58.7922 125.619 54.1542 123.071 49.8452C122.023 48.0724 122.308 45.8147 123.765 44.3583L128.484 39.6394C130.523 37.6019 130.47 34.3354 128.485 32.3529L121.65 25.5177C119.669 23.5337 116.401 23.4757 114.364 25.5159L109.643 30.2366C108.187 31.6933 105.929 31.9785 104.156 30.9299C99.8467 28.3814 95.2087 26.4561 90.3709 25.2076C88.3786 24.6935 86.9865 22.8967 86.9865 20.839V14.1767C86.9865 11.3352 84.6744 9.02344 81.833 9.02344H72.1679C69.3265 9.02344 67.0144 11.3352 67.0144 14.1767V20.8384C67.0144 22.8961 65.6223 24.6929 63.63 25.207C58.7922 26.4555 54.1542 28.3808 49.8449 30.9293C48.0715 31.9776 45.8141 31.6924 44.3577 30.236L39.6391 25.5171C37.6046 23.4802 34.3372 23.5274 32.3529 25.515L25.5171 32.3505C23.5373 34.3279 23.4712 37.5952 25.5153 39.637L30.236 44.3577C31.6924 45.8141 31.9776 48.0718 30.9293 49.8446C28.3808 54.1536 26.4558 58.7916 25.2073 63.6297C24.6929 65.622 22.8961 67.0138 20.8387 67.0138H14.177C11.3355 67.0141 9.02344 69.3259 9.02344 72.1673V81.8326C9.02344 84.6741 11.3355 86.9859 14.177 86.9859H20.8384C22.8961 86.9859 24.6926 88.3779 25.207 90.37C26.4555 95.2081 28.3808 99.8461 30.929 104.155C31.9773 105.928 31.6921 108.186 30.2357 109.642L25.5168 114.361C23.4769 116.398 23.5301 119.665 25.515 121.647L32.3502 128.483C34.3315 130.467 37.5992 130.525 39.6367 128.484L44.3571 123.764C45.4303 122.691 47.663 121.78 49.8446 123.071V123.071Z" fill="#7C3AED"/>
<path d="M76.9999 109.84C58.5239 109.84 43.4929 94.8092 43.4929 76.3334C43.4929 57.8576 58.5239 42.8264 76.9999 42.8264C95.476 42.8264 110.507 57.8576 110.507 76.3334C110.507 94.8092 95.476 109.84 76.9999 109.84V109.84ZM76.9999 51.8498C63.4994 51.8498 52.5164 62.8331 52.5164 76.3334C52.5164 89.8336 63.4997 100.817 76.9999 100.817C90.5002 100.817 101.484 89.8336 101.484 76.3334C101.484 62.8331 90.5005 51.8498 76.9999 51.8498V51.8498Z" fill="#7C3AED"/>
</svg>
